<svg xmlns="http://www.w3.org/2000/svg" fill="none" viewBox="0 0 267 153">
  <path fill="#000" d="M66.39 90.6c0-.874.14-1.957.42-3.25l2.622-11.897c.07-.488.105-.82.105-.996 0-.77-.35-1.275-1.05-1.521-.21-.069-.558-.14-1.048-.208-.49-.105-.85-.21-1.076-.316-.228-.105-.34-.26-.34-.472 0-.383.165-.681.498-.89.33-.21.83-.42 1.495-.63 3.426-.768 5.682-1.153 6.766-1.153.945 0 1.416.316 1.416.945 0 .105-.034.298-.105.576l-3.62 16.877c-.105.42-.157.804-.157 1.153 0 .595.133 1.049.394 1.362.262.316.62.473 1.075.473.595 0 1.128-.27 1.6-.814.472-.542.936-1.337 1.39-2.385a.997.997 0 0 1 .787-.368.82.82 0 0 1 .603.237c.158.156.236.392.236.708 0 .245-.087.576-.26.996-.63 1.748-1.592 3.197-2.886 4.35-1.295 1.153-2.746 1.73-4.354 1.73-3.01 0-4.513-1.503-4.513-4.508l.001.001Zm16.762 3.329c-.682-.787-1.023-1.896-1.023-3.329 0-1.05.123-2.13.369-3.25l4.982-23.637c.07-.489.105-.839.105-1.048 0-.734-.333-1.224-.997-1.468l-1.101-.21c-.525-.105-.892-.201-1.102-.288-.21-.085-.316-.254-.316-.496 0-.421.157-.725.472-.918.316-.193.821-.393 1.523-.604 3.426-.768 5.682-1.153 6.766-1.153.488 0 .847.079 1.075.236.227.157.341.429.341.812 0 .21-.018.385-.052.524l-6.086 28.618c-.105.42-.156.804-.156 1.154 0 .595.131 1.04.392 1.337.263.296.622.445 1.076.445.664 0 1.224-.262 1.678-.786.455-.524.91-1.328 1.365-2.411a.997.997 0 0 1 .786-.368c.245 0 .445.08.604.237.157.156.236.392.236.708 0 .245-.087.576-.261.995-.664 1.75-1.653 3.198-2.964 4.35-1.312 1.154-2.772 1.73-4.38 1.73-1.54 0-2.65-.393-3.332-1.178v-.002Zm15.581 0c-.682-.787-1.023-1.896-1.023-3.329 0-1.05.123-2.13.369-3.25l4.982-23.637c.07-.489.105-.839.105-1.048 0-.734-.333-1.224-.997-1.468l-1.102-.21c-.524-.105-.891-.201-1.101-.288-.21-.085-.316-.254-.316-.496 0-.421.157-.725.472-.918.316-.193.821-.393 1.523-.604 3.426-.768 5.682-1.153 6.766-1.153.488 0 .847.079 1.075.236.226.157.341.429.341.812 0 .21-.018.385-.052.524l-6.086 28.618c-.105.42-.156.804-.156 1.154 0 .595.131 1.04.392 1.337.263.296.621.445 1.076.445.664 0 1.224-.262 1.678-.786.455-.524.91-1.328 1.364-2.411a.999.999 0 0 1 .787-.368c.245 0 .445.08.604.237.157.156.236.392.236.708 0 .245-.087.576-.261.995-.664 1.75-1.653 3.198-2.964 4.35-1.312 1.154-2.772 1.73-4.381 1.73-1.539 0-2.65-.393-3.331-1.178v-.002Zm17.05-.446c-.963-1.083-1.443-2.603-1.443-4.561 0-.698.122-1.695.367-2.988l2.204-10.482c.07-.489.105-.839.105-1.049 0-.804-.333-1.293-.997-1.467l-1.102-.208c-.526-.105-.892-.202-1.103-.288-.208-.087-.315-.254-.315-.498 0-.42.166-.734.499-.944.331-.21.831-.42 1.495-.629 3.6-.734 5.875-1.102 6.818-1.102.489 0 .84.08 1.05.237.209.156.316.411.316.76 0 .209-.018.385-.053.525l-3.042 14.203c-.176.804-.261 1.486-.261 2.044 0 1.049.236 1.87.708 2.462.472.596 1.162.891 2.072.891 1.187 0 2.379-.463 3.567-1.389 1.188-.925 2.247-2.183 3.174-3.773.927-1.59 1.6-3.363 2.02-5.319l.892-4.455c.069-.488.103-.82.103-.996 0-.838-.349-1.346-1.049-1.521-.208-.069-.559-.14-1.049-.208-.49-.105-.848-.21-1.076-.316-.227-.106-.341-.26-.341-.472 0-.42.166-.734.499-.943.331-.21.831-.42 1.495-.63 3.602-.733 5.858-1.101 6.767-1.101.489 0 .847.072 1.075.21.227.14.341.366.341.68 0 .141-.035.351-.105.63l-3.619 17.191c-.072.49-.105.804-.105.943 0 1.153.489 1.731 1.468 1.731.559 0 1.075-.27 1.547-.813.473-.542.953-1.337 1.443-2.385.21-.244.454-.368.735-.368.244 0 .445.08.604.237.156.156.236.391.236.707 0 .246-.087.577-.262.996-.63 1.817-1.557 3.286-2.78 4.403-1.226 1.118-2.641 1.677-4.25 1.677-1.295 0-2.3-.411-3.018-1.232-.718-.822-1.074-1.967-1.074-3.433 0-.558.053-1.118.156-1.677v-.105c0-.278-.087-.419-.261-.419-.07 0-.193.103-.368.314-2.868 4.369-6.189 6.552-9.968 6.552-1.784 0-3.156-.542-4.117-1.625l.002.003Zm60.199-2.987c0-.978.121-2.01.367-3.093l1.731-7.704c.244-1.083.369-2.061.369-2.936 0-2.062-.84-3.092-2.518-3.092-.981 0-2.02.446-3.122 1.337-1.103.89-2.108 2.157-3.018 3.8-.909 1.642-1.574 3.513-1.992 5.608-.806 4.088-1.311 6.85-1.523 8.28-.07.56-.245.988-.524 1.285-.28.298-.779.508-1.495.629-.718.123-1.776.201-3.174.236-.456 0-.787-.131-.998-.392-.209-.262-.261-.585-.156-.97.069-.244.139-.48.208-.709.071-.226.123-.427.157-.602.596-2.27 1.05-4.14 1.364-5.608l1.468-6.655c.246-1.119.369-2.131.369-3.04 0-1.119-.228-1.93-.682-2.439-.456-.505-1.102-.76-1.941-.76-.945 0-1.959.446-3.043 1.337-1.084.89-2.081 2.157-2.99 3.8-.91 1.642-1.574 3.513-1.993 5.608-.804 4.017-1.33 6.779-1.575 8.28-.07.56-.236.988-.497 1.285-.262.298-.754.508-1.469.629-.718.123-1.775.201-3.174.236-.455 0-.787-.131-.996-.392-.21-.262-.263-.585-.158-.97l.63-2.463a74.617 74.617 0 0 0 1.101-4.455l2.414-11.111c.07-.489.105-.821.105-.996 0-.839-.351-1.346-1.051-1.522-.208-.069-.559-.139-1.049-.208-.489-.105-.848-.21-1.074-.316-.228-.105-.341-.26-.341-.471 0-.42.164-.734.497-.944.332-.21.831-.42 1.495-.629 3.602-.734 5.858-1.102 6.767-1.102.489 0 .848.072 1.076.21.226.14.341.367.341.681 0 .14-.036.35-.105.63l-.84 3.93c-.14.629-.104.945.105.945a.902.902 0 0 0 .236-.185c.086-.085.166-.183.237-.288 2.623-4.157 5.542-6.236 8.761-6.236 1.854 0 3.2.559 4.04 1.677.838 1.12 1.259 2.62 1.259 4.51 0 .523.069.784.209.784.21 0 .384-.156.525-.472 1.013-1.887 2.29-3.441 3.829-4.665 1.538-1.223 3.217-1.834 5.035-1.834 1.713 0 3.043.454 3.988 1.363.945.909 1.416 2.306 1.416 4.193 0 .978-.123 2.026-.368 3.143l-2.203 10.063c-.072.28-.105.649-.105 1.102 0 .595.121 1.058.367 1.39.245.332.595.496 1.051.496.593 0 1.126-.27 1.599-.813.473-.542.936-1.336 1.39-2.384.21-.28.473-.421.787-.421.209 0 .393.08.55.237.156.156.237.392.237.708 0 .35-.071.681-.21.996-.63 1.748-1.556 3.197-2.781 4.35-1.224 1.153-2.746 1.73-4.564 1.73-2.905 0-4.354-1.537-4.354-4.613l.003.002Zm16.261.104c0-.874.141-1.957.421-3.25l2.622-11.897c.07-.488.105-.82.105-.996 0-.77-.349-1.275-1.049-1.521-.21-.069-.559-.14-1.05-.208-.49-.105-.849-.21-1.075-.316-.228-.105-.341-.26-.341-.472 0-.383.166-.681.498-.89.332-.21.831-.42 1.495-.63 3.427-.768 5.683-1.153 6.767-1.153.945 0 1.416.316 1.416.945 0 .105-.034.298-.105.576l-3.62 16.877c-.105.42-.157.804-.157 1.153 0 .595.132 1.049.393 1.362.263.316.622.473 1.076.473.595 0 1.128-.27 1.6-.814.472-.542.936-1.337 1.39-2.385a.997.997 0 0 1 .787-.368.82.82 0 0 1 .603.237c.158.156.236.392.236.708 0 .245-.087.576-.261.996-.629 1.748-1.591 3.197-2.885 4.35-1.295 1.153-2.746 1.73-4.354 1.73-3.01 0-4.513-1.503-4.513-4.508l.001.001Zm33.34 3.276c-.717-.822-1.074-1.947-1.074-3.38 0-.873.14-1.923.42-3.145l1.994-8.334c.208-.802.314-1.52.314-2.149 0-1.05-.262-1.842-.787-2.384-.524-.542-1.224-.813-2.098-.813-1.154 0-2.335.446-3.541 1.337-1.207.89-2.281 2.15-3.226 3.773-.945 1.625-1.627 3.504-2.045 5.635-.701 3.564-1.207 6.325-1.523 8.28-.07.56-.246.988-.524 1.285-.281.298-.779.508-1.496.629-.717.123-1.775.201-3.173.236-.351 0-.63-.087-.84-.26a.85.85 0 0 1-.315-.682c0-.174.018-.315.053-.42a233.172 233.172 0 0 0 1.521-6.237c.454-1.99 1.312-5.922 2.571-11.792.07-.489.105-.821.105-.996 0-.839-.351-1.346-1.051-1.522-.208-.069-.559-.139-1.049-.208-.489-.105-.848-.21-1.074-.316-.228-.105-.341-.26-.341-.471 0-.42.164-.734.497-.944.333-.21.831-.42 1.495-.629 3.602-.734 5.858-1.102 6.767-1.102.489 0 .848.072 1.076.21.226.14.341.367.341.681 0 .14-.036.35-.105.63l-.839 3.93c-.141.596-.105.891.105.891.104 0 .26-.14.472-.42 2.692-4.158 5.91-6.236 9.653-6.236 1.642 0 2.962.481 3.96 1.441.997.961 1.495 2.385 1.495 4.272 0 .979-.122 1.975-.368 2.987l-2.308 10.063c-.071.28-.105.649-.105 1.102 0 .559.123 1.006.368 1.337.245.332.595.498 1.049.498.56 0 1.058-.262 1.496-.786.436-.525.883-1.31 1.337-2.359.281-.316.559-.472.84-.472a.82.82 0 0 1 .629.289c.174.191.261.444.261.76 0 .315-.07.629-.208.943-.63 1.749-1.575 3.197-2.833 4.35-1.259 1.153-2.764 1.73-4.513 1.73-1.54 0-2.667-.411-3.384-1.232h.001Zm15.057-.917c-1.241-1.433-1.864-3.423-1.864-5.975 0-2.76.551-5.531 1.653-8.307 1.101-2.777 2.692-5.076 4.773-6.893 2.081-1.815 4.52-2.725 7.319-2.725 1.259 0 2.343.254 3.252.76a11.134 11.134 0 0 1 2.466 1.86c.769.56 1.433.84 1.992.84.28 0 .526-.096.735-.29.209-.19.506-.566.891-1.126.525-.837.927-1.397 1.207-1.677s.594-.42.944-.42c.351 0 .605.105.761.315.157.21.202.49.133.838l-3.778 17.557a4.977 4.977 0 0 0-.157 1.206c0 1.153.489 1.73 1.469 1.73 1.049 0 2.044-1.049 2.99-3.144.245-.28.525-.42.838-.42.21 0 .384.08.525.237.141.155.21.375.21.655 0 .35-.087.699-.261 1.048-.702 1.782-1.645 3.243-2.835 4.376-1.188 1.136-2.569 1.704-4.144 1.704-1.434 0-2.508-.401-3.226-1.206-.718-.802-1.076-1.852-1.076-3.144 0-.524.053-1.049.158-1.573v-.157c0-.349-.087-.524-.261-.524-.105 0-.246.105-.421.316-1.33 1.852-2.702 3.362-4.117 4.532-1.417 1.172-3.071 1.756-4.958 1.756-2.239 0-3.98-.716-5.22-2.15h.002Zm11.462-3.8c1.12-.997 2.091-2.22 2.912-3.669.821-1.45 1.408-2.856 1.756-4.22.316-1.153.525-2.061.63-2.726.105-.665.157-1.345.157-2.044 0-1.466-.393-2.627-1.18-3.484-.786-.857-1.81-1.285-3.069-1.285-1.609 0-3.061.725-4.355 2.175-1.295 1.45-2.3 3.233-3.016 5.346-.718 2.114-1.076 4.062-1.076 5.844s.332 3.153.999 4.113c.662.961 1.573 1.442 2.728 1.442 1.224 0 2.395-.496 3.514-1.492Z"/>
  <path fill="#A76F1F" d="M76.295 39.686c-.605 0-1.096-.49-1.096-1.095V1.095a1.096 1.096 0 0 1 2.192 0v37.497c0 .604-.49 1.094-1.096 1.094Zm-7.346.723c-.512 0-.97-.36-1.074-.882l-5.03-25.278a1.094 1.094 0 0 1 .862-1.287 1.095 1.095 0 0 1 1.288.861l5.03 25.278a1.094 1.094 0 0 1-1.076 1.308ZM55.38 46.02c-.354 0-.702-.17-.913-.486L40.142 24.099a1.095 1.095 0 0 1 1.823-1.217l14.324 21.436a1.095 1.095 0 0 1-.91 1.703ZM44.987 56.392c-.21 0-.422-.06-.61-.185l-21.44-14.332a1.094 1.094 0 1 1 1.22-1.82l21.44 14.333a1.094 1.094 0 0 1-.61 2.004Zm-5.629 13.554c-.072 0-.143-.007-.215-.022l-25.297-5.05a1.095 1.095 0 1 1 .429-2.147l25.297 5.05a1.095 1.095 0 0 1-.214 2.167v.002Zm22.517-27.393c-.43 0-.838-.253-1.014-.675L46.493 7.237a1.096 1.096 0 0 1 2.024-.839l14.368 34.64a1.094 1.094 0 0 1-1.01 1.514ZM49.65 50.717c-.28 0-.56-.106-.774-.32L22.329 23.892a1.096 1.096 0 0 1 1.549-1.548L50.425 48.85a1.093 1.093 0 0 1-.775 1.867Zm-8.163 12.218c-.14 0-.282-.026-.418-.084L6.388 48.519a1.094 1.094 0 1 1 .838-2.024l34.68 14.332a1.094 1.094 0 0 1-.419 2.108ZM38.626 77.32H1.096a1.096 1.096 0 1 1 0-2.191h37.53a1.096 1.096 0 1 1 0 2.19ZM83.64 40.409a1.095 1.095 0 0 1-1.077-1.308l5.029-25.278a1.095 1.095 0 1 1 2.15.426l-5.03 25.278c-.103.522-.56.882-1.073.882Zm13.569 5.611a1.093 1.093 0 0 1-.91-1.703l14.325-21.435a1.095 1.095 0 1 1 1.822 1.217L98.121 45.534c-.21.316-.559.487-.912.487Zm-6.494-3.467a1.094 1.094 0 0 1-1.012-1.515L104.072 6.4a1.095 1.095 0 1 1 2.023.838l-14.368 34.64a1.094 1.094 0 0 1-1.012.675Zm-14.42 70.21c-.605 0-1.096.489-1.096 1.095v37.497a1.096 1.096 0 0 0 2.192 0v-37.497c0-.604-.49-1.095-1.096-1.095Zm-7.346-.723c-.512 0-.97.36-1.074.881l-5.03 25.278c-.118.593.268 1.17.862 1.287a1.095 1.095 0 0 0 1.288-.861l5.03-25.278a1.094 1.094 0 0 0-1.076-1.307Zm-13.569-5.612c-.354 0-.702.171-.913.486L40.142 128.35a1.095 1.095 0 1 0 1.823 1.216l14.324-21.435a1.096 1.096 0 0 0-.91-1.703ZM44.987 96.057c-.21 0-.422.06-.61.185l-21.44 14.332a1.093 1.093 0 0 0-.3 1.518 1.097 1.097 0 0 0 1.52.301l21.44-14.332a1.094 1.094 0 0 0-.61-2.004Zm-5.629-13.554c-.072 0-.143.007-.215.022l-25.297 5.05a1.095 1.095 0 1 0 .429 2.147l25.297-5.05a1.095 1.095 0 0 0-.214-2.17Zm22.517 27.392c-.43 0-.838.254-1.014.676L46.493 145.21a1.096 1.096 0 0 0 2.024.839l14.368-34.64a1.094 1.094 0 0 0-1.01-1.514Zm-12.225-8.164c-.28 0-.56.106-.774.32l-26.547 26.506a1.095 1.095 0 0 0 1.549 1.547l26.547-26.505a1.094 1.094 0 0 0-.775-1.869v.001Zm-8.163-12.218c-.14 0-.282.027-.418.085L6.388 103.93a1.094 1.094 0 1 0 .838 2.023l34.68-14.332a1.094 1.094 0 0 0-.419-2.108ZM83.64 112.04a1.095 1.095 0 0 0-1.077 1.307l5.029 25.278a1.095 1.095 0 1 0 2.15-.426l-5.03-25.278a1.094 1.094 0 0 0-1.073-.881Zm13.569-5.612a1.093 1.093 0 0 0-.91 1.703l14.325 21.435a1.094 1.094 0 0 0 1.52.302 1.092 1.092 0 0 0 .302-1.518l-14.325-21.436a1.098 1.098 0 0 0-.912-.486Zm-6.494 3.467a1.094 1.094 0 0 0-1.012 1.514l14.369 34.64a1.094 1.094 0 0 0 2.023-.839l-14.368-34.639a1.094 1.094 0 0 0-1.012-.676Z"/>
  <path fill="#000" d="M127.339 109.405h-3.602a.394.394 0 0 1-.393-.393v-.601c0-.206.166-.393.393-.393h8.779c.228 0 .394.187.394.393v.601a.394.394 0 0 1-.394.393h-3.601v12.702a.408.408 0 0 1-.394.393h-.787a.407.407 0 0 1-.393-.393l-.002-12.702Zm15.097-.994c0-.206.186-.393.392-.393h.809c.226 0 .392.187.392.393v6.041h8.407v-6.041c0-.206.166-.393.394-.393h.807c.207 0 .394.187.394.393v13.696a.408.408 0 0 1-.394.393h-.807a.393.393 0 0 1-.394-.393v-6.269h-8.407v6.269a.393.393 0 0 1-.392.393h-.809a.406.406 0 0 1-.392-.393v-13.696Zm23.069 0c0-.206.165-.393.392-.393h8.159c.228 0 .393.187.393.393v.601a.393.393 0 0 1-.393.393h-6.958v5.047h5.943c.207 0 .394.186.394.393v.6a.393.393 0 0 1-.394.393h-5.943v5.276h6.958c.228 0 .393.186.393.393v.6a.392.392 0 0 1-.393.393h-8.159a.392.392 0 0 1-.392-.393v-13.696Zm19.507 0c0-.206.166-.393.392-.393h5.365c2.485 0 4.514 1.945 4.514 4.407 0 1.903-1.263 3.496-3.065 4.22l2.837 5.257c.144.267 0 .6-.352.6h-1.056c-.188 0-.291-.104-.331-.187l-2.754-5.482h-3.956v5.274a.406.406 0 0 1-.392.393h-.809a.393.393 0 0 1-.392-.393v-13.696h-.001Zm5.653 7.055c1.593 0 2.982-1.324 2.982-3.021 0-1.572-1.389-2.915-2.982-2.915h-4.017v5.937h4.017v-.001Zm13.295 6.496 6.295-13.923c.062-.125.166-.228.354-.228h.205c.187 0 .29.103.352.228l6.254 13.923c.124.268-.041.538-.352.538h-.83a.382.382 0 0 1-.352-.227l-1.531-3.414h-7.351l-1.512 3.414a.38.38 0 0 1-.352.227h-.829c-.311 0-.477-.269-.353-.538h.002Zm9.836-4.387c-1.014-2.255-2.008-4.53-3.023-6.785h-.164l-3.024 6.785h6.211Zm13.129-9.164c0-.206.166-.393.392-.393h4.577c2.547 0 4.637 2.069 4.637 4.572 0 2.564-2.091 4.655-4.618 4.655h-3.417v4.861a.407.407 0 0 1-.393.393h-.787a.393.393 0 0 1-.392-.393V108.41l.001.001Zm4.865 7.303a3.163 3.163 0 0 0 3.148-3.165c0-1.676-1.45-2.959-3.148-2.959h-3.292v6.123l3.292.001Zm17.644-.186-4.989-6.91c-.166-.269 0-.602.329-.602h.974c.145 0 .269.104.331.188l4.183 5.772 4.182-5.772c.062-.084.188-.188.331-.188h.973c.332 0 .497.331.332.602l-5.053 6.889v6.599a.407.407 0 0 1-.393.393h-.808a.393.393 0 0 1-.394-.393v-6.579l.002.001ZM72.505 65.347a4.316 4.316 0 0 0 4.319-4.314 4.316 4.316 0 0 0-4.319-4.315 4.316 4.316 0 0 0-4.318 4.315 4.316 4.316 0 0 0 4.318 4.314Zm125.507.975a3.134 3.134 0 0 0 3.136-3.132 3.134 3.134 0 0 0-3.136-3.132 3.134 3.134 0 0 0-3.135 3.132 3.134 3.134 0 0 0 3.135 3.132Z"/>
</svg>
